{
    "asset" : {
        "generator" : "Khronos glTF Blender I/O v3.3.27",
        "version" : "2.0"
    },
    "extensionsUsed" : [
        "KHR_materials_specular",
        "KHR_materials_ior"
    ],
    "scene" : 0,
    "scenes" : [
        {
            "name" : "Scene",
            "nodes" : [
                0,
                1
            ]
        }
    ],
    "nodes" : [
        {
            "mesh" : 0,
            "name" : "Circle",
            "scale" : [
                0.6310187578201294,
                0.6310187578201294,
                0.38805660605430603
            ],
            "translation" : [
                0.010370370000600815,
                3.2490715980529785,
                -0.10104113817214966
            ]
        },
        {
            "mesh" : 1,
            "name" : "Circle.001",
            "scale" : [
                0.6310187578201294,
                0.6310187578201294,
                0.38805660605430603
            ],
            "translation" : [
                0.010370370000600815,
                3.2490715980529785,
                -0.10104113817214966
            ]
        }
    ],
    "animations" : [
        {
            "channels" : [
                {
                    "sampler" : 0,
                    "target" : {
                        "node" : 0,
                        "path" : "translation"
                    }
                }
            ],
            "name" : "CircleAction.001",
            "samplers" : [
                {
                    "input" : 8,
                    "interpolation" : "STEP",
                    "output" : 9
                }
            ]
        },
        {
            "channels" : [
                {
                    "sampler" : 0,
                    "target" : {
                        "node" : 1,
                        "path" : "translation"
                    }
                }
            ],
            "name" : "CircleAction.002",
            "samplers" : [
                {
                    "input" : 8,
                    "interpolation" : "STEP",
                    "output" : 10
                }
            ]
        }
    ],
    "materials" : [
        {
            "doubleSided" : true,
            "extensions" : {
                "KHR_materials_specular" : {
                    "specularColorFactor" : [
                        2.371357614441398,
                        2.371357614441398,
                        2.371357614441398
                    ]
                },
                "KHR_materials_ior" : {
                    "ior" : 1.4500000476837158
                }
            },
            "name" : "Material.001",
            "pbrMetallicRoughness" : {
                "baseColorFactor" : [
                    0,
                    0,
                    0,
                    1
                ],
                "metallicFactor" : 0,
                "roughnessFactor" : 0.32677164673805237
            }
        }
    ],
    "meshes" : [
        {
            "name" : "Circle.001",
            "primitives" : [
                {
                    "attributes" : {
                        "POSITION" : 0,
                        "NORMAL" : 1,
                        "TEXCOORD_0" : 2
                    },
                    "indices" : 3
                }
            ]
        },
        {
            "name" : "Circle.002",
            "primitives" : [
                {
                    "attributes" : {
                        "POSITION" : 4,
                        "NORMAL" : 5,
                        "TEXCOORD_0" : 6
                    },
                    "indices" : 7,
                    "material" : 0
                }
            ]
        }
    ],
    "accessors" : [
        {
            "bufferView" : 0,
            "componentType" : 5126,
            "count" : 599,
            "max" : [
                1.058967113494873,
                2.0508577823638916,
                1.2000949382781982
            ],
            "min" : [
                -1.058967113494873,
                -1.489538550376892,
                -1.0550298690795898
            ],
            "type" : "VEC3"
        },
        {
            "bufferView" : 1,
            "componentType" : 5126,
            "count" : 599,
            "type" : "VEC3"
        },
        {
            "bufferView" : 2,
            "componentType" : 5126,
            "count" : 599,
            "type" : "VEC2"
        },
        {
            "bufferView" : 3,
            "componentType" : 5123,
            "count" : 3660,
            "type" : "SCALAR"
        },
        {
            "bufferView" : 4,
            "componentType" : 5126,
            "count" : 1722,
            "max" : [
                1.5195567607879639,
                -1.4409244060516357,
                2.879826545715332
            ],
            "min" : [
                -1.5195567607879639,
                -5.165591716766357,
                -1.443316102027893
            ],
            "type" : "VEC3"
        },
        {
            "bufferView" : 5,
            "componentType" : 5126,
            "count" : 1722,
            "type" : "VEC3"
        },
        {
            "bufferView" : 6,
            "componentType" : 5126,
            "count" : 1722,
            "type" : "VEC2"
        },
        {
            "bufferView" : 7,
            "componentType" : 5123,
            "count" : 10848,
            "type" : "SCALAR"
        },
        {
            "bufferView" : 8,
            "componentType" : 5126,
            "count" : 1,
            "max" : [
                5.666666666666667
            ],
            "min" : [
                5.666666666666667
            ],
            "type" : "SCALAR"
        },
        {
            "bufferView" : 9,
            "componentType" : 5126,
            "count" : 1,
            "type" : "VEC3"
        },
        {
            "bufferView" : 10,
            "componentType" : 5126,
            "count" : 1,
            "type" : "VEC3"
        }
    ],
    "bufferViews" : [
        {
            "buffer" : 0,
            "byteLength" : 7188,
            "byteOffset" : 0,
            "target" : 34962
        },
        {
            "buffer" : 0,
            "byteLength" : 7188,
            "byteOffset" : 7188,
            "target" : 34962
        },
        {
            "buffer" : 0,
            "byteLength" : 4792,
            "byteOffset" : 14376,
            "target" : 34962
        },
        {
            "buffer" : 0,
            "byteLength" : 7320,
            "byteOffset" : 19168,
            "target" : 34963
        },
        {
            "buffer" : 0,
            "byteLength" : 20664,
            "byteOffset" : 26488,
            "target" : 34962
        },
        {
            "buffer" : 0,
            "byteLength" : 20664,
            "byteOffset" : 47152,
            "target" : 34962
        },
        {
            "buffer" : 0,
            "byteLength" : 13776,
            "byteOffset" : 67816,
            "target" : 34962
        },
        {
            "buffer" : 0,
            "byteLength" : 21696,
            "byteOffset" : 81592,
            "target" : 34963
        },
        {
            "buffer" : 0,
            "byteLength" : 4,
            "byteOffset" : 103288
        },
        {
            "buffer" : 0,
            "byteLength" : 12,
            "byteOffset" : 103292
        },
        {
            "buffer" : 0,
            "byteLength" : 12,
            "byteOffset" : 103304
        }
    ],
    "buffers" : [
        {
            "byteLength" : 103316,
            "uri" : "data:application/octet-stream;base64,"
        }
    ]
}
